<mxfile host="app.diagrams.net" modified="2024-05-07T16:02:53.897Z" agent="Mozilla/5.0 (Macintosh; Intel Mac OS X 10_15_7) AppleWebKit/537.36 (KHTML, like Gecko) Chrome/124.0.0.0 Safari/537.36" etag="RdX2taWnDSwN0vmaRuYC" version="24.0.4" type="github">
  <diagram name="Trang-1" id="7otKKrkH3ycADhLQm06w">
    <mxGraphModel dx="1194" dy="731" grid="1" gridSize="10" guides="1" tooltips="1" connect="1" arrows="1" fold="1" page="1" pageScale="1" pageWidth="850" pageHeight="1100" math="0" shadow="0">
      <root>
        <mxCell id="0" />
        <mxCell id="1" parent="0" />
        <mxCell id="finivNjmWycJj_v846NW-5" style="edgeStyle=orthogonalEdgeStyle;rounded=0;orthogonalLoop=1;jettySize=auto;html=1;entryX=0.5;entryY=1;entryDx=0;entryDy=0;" edge="1" parent="1" source="finivNjmWycJj_v846NW-1" target="finivNjmWycJj_v846NW-4">
          <mxGeometry relative="1" as="geometry" />
        </mxCell>
        <mxCell id="finivNjmWycJj_v846NW-1" value="Outside house user" style="shape=umlActor;verticalLabelPosition=bottom;verticalAlign=top;html=1;outlineConnect=0;" vertex="1" parent="1">
          <mxGeometry x="90" y="460" width="30" height="60" as="geometry" />
        </mxCell>
        <mxCell id="finivNjmWycJj_v846NW-3" value="Home" style="swimlane;whiteSpace=wrap;html=1;" vertex="1" parent="1">
          <mxGeometry x="280" y="40" width="510" height="410" as="geometry" />
        </mxCell>
        <mxCell id="finivNjmWycJj_v846NW-2" value="Local gateway" style="image;aspect=fixed;perimeter=ellipsePerimeter;html=1;align=center;shadow=0;dashed=0;spacingTop=3;image=img/lib/active_directory/database_server.svg;" vertex="1" parent="finivNjmWycJj_v846NW-3">
          <mxGeometry x="-20" y="178.29" width="43.8" height="53.41" as="geometry" />
        </mxCell>
        <mxCell id="finivNjmWycJj_v846NW-7" value="" style="html=1;verticalLabelPosition=bottom;align=center;labelBackgroundColor=#ffffff;verticalAlign=top;strokeWidth=2;strokeColor=#0080F0;shadow=0;dashed=0;shape=mxgraph.ios7.icons.lightbulb;" vertex="1" parent="finivNjmWycJj_v846NW-3">
          <mxGeometry x="230" y="40" width="30" height="29.7" as="geometry" />
        </mxCell>
        <mxCell id="finivNjmWycJj_v846NW-8" value="" style="sketch=0;pointerEvents=1;shadow=0;dashed=0;html=1;strokeColor=none;fillColor=#505050;labelPosition=center;verticalLabelPosition=bottom;verticalAlign=top;outlineConnect=0;align=center;shape=mxgraph.office.devices.tv;" vertex="1" parent="finivNjmWycJj_v846NW-3">
          <mxGeometry x="230" y="277.65000000000003" width="30" height="30" as="geometry" />
        </mxCell>
        <mxCell id="finivNjmWycJj_v846NW-9" value="" style="sketch=0;outlineConnect=0;fontColor=#232F3E;gradientColor=none;fillColor=#7AA116;strokeColor=none;dashed=0;verticalLabelPosition=bottom;verticalAlign=top;align=center;html=1;fontSize=12;fontStyle=0;aspect=fixed;pointerEvents=1;shape=mxgraph.aws4.iot_thing_humidity_sensor;" vertex="1" parent="finivNjmWycJj_v846NW-3">
          <mxGeometry x="230" y="217.65" width="30" height="30" as="geometry" />
        </mxCell>
        <mxCell id="finivNjmWycJj_v846NW-10" value="" style="verticalLabelPosition=bottom;sketch=0;html=1;fillColor=#6ABD46;strokeColor=#ffffff;verticalAlign=top;align=center;points=[[0.085,0.085,0],[0.915,0.085,0],[0.915,0.915,0],[0.085,0.915,0],[0.25,0,0],[0.5,0,0],[0.75,0,0],[1,0.25,0],[1,0.5,0],[1,0.75,0],[0.75,1,0],[0.5,1,0],[0.25,1,0],[0,0.75,0],[0,0.5,0],[0,0.25,0]];pointerEvents=1;shape=mxgraph.cisco_safe.compositeIcon;bgIcon=mxgraph.cisco_safe.architecture.generic_appliance;resIcon=mxgraph.cisco_safe.architecture.sensor;" vertex="1" parent="finivNjmWycJj_v846NW-3">
          <mxGeometry x="230" y="97.65" width="30" height="30" as="geometry" />
        </mxCell>
        <mxCell id="finivNjmWycJj_v846NW-11" value="" style="image;aspect=fixed;perimeter=ellipsePerimeter;html=1;align=center;shadow=0;dashed=0;fontColor=#4277BB;labelBackgroundColor=default;fontSize=12;spacingTop=3;image=img/lib/ibm/users/sensor.svg;" vertex="1" parent="finivNjmWycJj_v846NW-3">
          <mxGeometry x="230" y="157.65" width="30" height="30" as="geometry" />
        </mxCell>
        <mxCell id="finivNjmWycJj_v846NW-12" value="" style="html=1;verticalLabelPosition=bottom;verticalAlign=top;outlineConnect=0;shadow=0;dashed=0;shape=mxgraph.rack.hpe_aruba.switches.r0x36a_aruba_6400_3000w_ps_w_c20;" vertex="1" parent="finivNjmWycJj_v846NW-3">
          <mxGeometry x="230" y="337.65" width="40" height="20" as="geometry" />
        </mxCell>
        <mxCell id="finivNjmWycJj_v846NW-13" value="&lt;h1&gt;...&lt;/h1&gt;" style="text;html=1;align=center;verticalAlign=middle;resizable=0;points=[];autosize=1;strokeColor=none;fillColor=none;" vertex="1" parent="finivNjmWycJj_v846NW-3">
          <mxGeometry x="340" y="167.64000000000001" width="40" height="70" as="geometry" />
        </mxCell>
        <mxCell id="finivNjmWycJj_v846NW-15" style="edgeStyle=orthogonalEdgeStyle;rounded=0;orthogonalLoop=1;jettySize=auto;html=1;entryX=1;entryY=0.5;entryDx=0;entryDy=0;" edge="1" parent="finivNjmWycJj_v846NW-3" source="finivNjmWycJj_v846NW-14" target="finivNjmWycJj_v846NW-2">
          <mxGeometry relative="1" as="geometry" />
        </mxCell>
        <mxCell id="finivNjmWycJj_v846NW-14" value="Inside house user" style="shape=umlActor;verticalLabelPosition=bottom;verticalAlign=top;html=1;outlineConnect=0;" vertex="1" parent="finivNjmWycJj_v846NW-3">
          <mxGeometry x="90" y="290" width="30" height="60" as="geometry" />
        </mxCell>
        <mxCell id="finivNjmWycJj_v846NW-6" style="edgeStyle=orthogonalEdgeStyle;rounded=0;orthogonalLoop=1;jettySize=auto;html=1;entryX=0;entryY=0.5;entryDx=0;entryDy=0;" edge="1" parent="1" source="finivNjmWycJj_v846NW-4" target="finivNjmWycJj_v846NW-2">
          <mxGeometry relative="1" as="geometry" />
        </mxCell>
        <mxCell id="finivNjmWycJj_v846NW-4" value="Cloud web service" style="image;aspect=fixed;perimeter=ellipsePerimeter;html=1;align=center;shadow=0;dashed=0;spacingTop=3;image=img/lib/active_directory/web_server.svg;" vertex="1" parent="1">
          <mxGeometry x="61" y="10" width="88" height="110" as="geometry" />
        </mxCell>
        <mxCell id="finivNjmWycJj_v846NW-18" value="Cloud se&lt;span style=&quot;background-color: initial;&quot;&gt;rver(private zone)&lt;/span&gt;" style="swimlane;whiteSpace=wrap;html=1;" vertex="1" parent="1">
          <mxGeometry x="430" y="590" width="400" height="420" as="geometry" />
        </mxCell>
        <mxCell id="finivNjmWycJj_v846NW-19" value="" style="sketch=0;outlineConnect=0;fontColor=#232F3E;gradientColor=none;fillColor=#7AA116;strokeColor=none;dashed=0;verticalLabelPosition=bottom;verticalAlign=top;align=center;html=1;fontSize=12;fontStyle=0;aspect=fixed;pointerEvents=1;shape=mxgraph.aws4.mqtt_protocol;" vertex="1" parent="finivNjmWycJj_v846NW-18">
          <mxGeometry x="40" y="55" width="50" height="50" as="geometry" />
        </mxCell>
        <mxCell id="finivNjmWycJj_v846NW-26" value="Application server" style="sketch=0;aspect=fixed;pointerEvents=1;shadow=0;dashed=0;html=1;strokeColor=none;labelPosition=center;verticalLabelPosition=bottom;verticalAlign=top;align=center;fillColor=#00188D;shape=mxgraph.mscae.enterprise.application_server" vertex="1" parent="finivNjmWycJj_v846NW-18">
          <mxGeometry x="178" y="55" width="43" height="50" as="geometry" />
        </mxCell>
        <mxCell id="finivNjmWycJj_v846NW-28" value="database(multi-region)" style="sketch=0;aspect=fixed;pointerEvents=1;shadow=0;dashed=0;html=1;strokeColor=none;labelPosition=center;verticalLabelPosition=bottom;verticalAlign=top;align=center;fillColor=#00188D;shape=mxgraph.mscae.enterprise.database_server" vertex="1" parent="finivNjmWycJj_v846NW-18">
          <mxGeometry x="320" y="170" width="38" height="50" as="geometry" />
        </mxCell>
        <mxCell id="finivNjmWycJj_v846NW-51" style="edgeStyle=orthogonalEdgeStyle;rounded=0;orthogonalLoop=1;jettySize=auto;html=1;exitX=1;exitY=0.76;exitDx=0;exitDy=0;exitPerimeter=0;" edge="1" parent="finivNjmWycJj_v846NW-18" source="finivNjmWycJj_v846NW-30" target="finivNjmWycJj_v846NW-28">
          <mxGeometry relative="1" as="geometry" />
        </mxCell>
        <mxCell id="finivNjmWycJj_v846NW-30" value="web application server" style="sketch=0;aspect=fixed;pointerEvents=1;shadow=0;dashed=0;html=1;strokeColor=none;labelPosition=center;verticalLabelPosition=bottom;verticalAlign=top;align=center;fillColor=#00188D;shape=mxgraph.mscae.enterprise.web_server" vertex="1" parent="finivNjmWycJj_v846NW-18">
          <mxGeometry x="70" y="310" width="38" height="50" as="geometry" />
        </mxCell>
        <mxCell id="finivNjmWycJj_v846NW-36" value="web application server" style="sketch=0;aspect=fixed;pointerEvents=1;shadow=0;dashed=0;html=1;strokeColor=none;labelPosition=center;verticalLabelPosition=bottom;verticalAlign=top;align=center;fillColor=#00188D;shape=mxgraph.mscae.enterprise.web_server" vertex="1" parent="finivNjmWycJj_v846NW-18">
          <mxGeometry x="70" y="185" width="38" height="50" as="geometry" />
        </mxCell>
        <mxCell id="finivNjmWycJj_v846NW-47" style="edgeStyle=orthogonalEdgeStyle;rounded=0;orthogonalLoop=1;jettySize=auto;html=1;entryX=0;entryY=0.5;entryDx=0;entryDy=0;entryPerimeter=0;" edge="1" parent="finivNjmWycJj_v846NW-18" source="finivNjmWycJj_v846NW-19" target="finivNjmWycJj_v846NW-26">
          <mxGeometry relative="1" as="geometry" />
        </mxCell>
        <mxCell id="finivNjmWycJj_v846NW-49" style="edgeStyle=orthogonalEdgeStyle;rounded=0;orthogonalLoop=1;jettySize=auto;html=1;entryX=0.5;entryY=0;entryDx=0;entryDy=0;entryPerimeter=0;" edge="1" parent="finivNjmWycJj_v846NW-18" source="finivNjmWycJj_v846NW-26" target="finivNjmWycJj_v846NW-28">
          <mxGeometry relative="1" as="geometry" />
        </mxCell>
        <mxCell id="finivNjmWycJj_v846NW-50" style="edgeStyle=orthogonalEdgeStyle;rounded=0;orthogonalLoop=1;jettySize=auto;html=1;entryX=0;entryY=0.5;entryDx=0;entryDy=0;entryPerimeter=0;exitX=0.737;exitY=0.2;exitDx=0;exitDy=0;exitPerimeter=0;" edge="1" parent="finivNjmWycJj_v846NW-18" source="finivNjmWycJj_v846NW-36" target="finivNjmWycJj_v846NW-28">
          <mxGeometry relative="1" as="geometry" />
        </mxCell>
        <mxCell id="finivNjmWycJj_v846NW-52" value="Message queue" style="verticalLabelPosition=bottom;html=1;verticalAlign=top;align=center;strokeColor=none;fillColor=#00BEF2;shape=mxgraph.azure.queue_generic;pointerEvents=1;" vertex="1" parent="finivNjmWycJj_v846NW-18">
          <mxGeometry x="175" y="260" width="50" height="15" as="geometry" />
        </mxCell>
        <mxCell id="finivNjmWycJj_v846NW-53" style="edgeStyle=orthogonalEdgeStyle;rounded=0;orthogonalLoop=1;jettySize=auto;html=1;entryX=0.5;entryY=1;entryDx=0;entryDy=0;entryPerimeter=0;flowAnimation=1;" edge="1" parent="finivNjmWycJj_v846NW-18" source="finivNjmWycJj_v846NW-30" target="finivNjmWycJj_v846NW-52">
          <mxGeometry relative="1" as="geometry" />
        </mxCell>
        <mxCell id="finivNjmWycJj_v846NW-54" style="edgeStyle=orthogonalEdgeStyle;rounded=0;orthogonalLoop=1;jettySize=auto;html=1;entryX=0;entryY=0.5;entryDx=0;entryDy=0;entryPerimeter=0;flowAnimation=1;" edge="1" parent="finivNjmWycJj_v846NW-18" source="finivNjmWycJj_v846NW-36" target="finivNjmWycJj_v846NW-52">
          <mxGeometry relative="1" as="geometry" />
        </mxCell>
        <mxCell id="finivNjmWycJj_v846NW-55" style="edgeStyle=orthogonalEdgeStyle;rounded=0;orthogonalLoop=1;jettySize=auto;html=1;entryX=0.5;entryY=0.99;entryDx=0;entryDy=0;entryPerimeter=0;shadow=0;textShadow=0;flowAnimation=1;" edge="1" parent="finivNjmWycJj_v846NW-18" source="finivNjmWycJj_v846NW-52" target="finivNjmWycJj_v846NW-26">
          <mxGeometry relative="1" as="geometry" />
        </mxCell>
        <mxCell id="finivNjmWycJj_v846NW-43" style="edgeStyle=orthogonalEdgeStyle;rounded=0;orthogonalLoop=1;jettySize=auto;html=1;entryX=0;entryY=0.5;entryDx=0;entryDy=0;fixDash=0;ignoreEdge=0;orthogonal=0;enumerate=0;comic=0;metaEdit=0;backgroundOutline=0;snapToPoint=0;" edge="1" parent="1" source="finivNjmWycJj_v846NW-23" target="finivNjmWycJj_v846NW-39">
          <mxGeometry relative="1" as="geometry" />
        </mxCell>
        <mxCell id="finivNjmWycJj_v846NW-23" value="Local gateway" style="image;aspect=fixed;perimeter=ellipsePerimeter;html=1;align=center;shadow=0;dashed=0;spacingTop=3;image=img/lib/active_directory/database_server.svg;" vertex="1" parent="1">
          <mxGeometry x="59.37" y="643.3" width="43.8" height="53.41" as="geometry" />
        </mxCell>
        <mxCell id="finivNjmWycJj_v846NW-41" style="edgeStyle=orthogonalEdgeStyle;rounded=0;orthogonalLoop=1;jettySize=auto;html=1;entryX=0;entryY=0.25;entryDx=0;entryDy=0;" edge="1" parent="1" source="finivNjmWycJj_v846NW-35" target="finivNjmWycJj_v846NW-37">
          <mxGeometry relative="1" as="geometry" />
        </mxCell>
        <mxCell id="finivNjmWycJj_v846NW-35" value="Mobile application" style="sketch=0;outlineConnect=0;fontColor=#232F3E;gradientColor=none;fillColor=#232F3D;strokeColor=none;dashed=0;verticalLabelPosition=bottom;verticalAlign=top;align=center;html=1;fontSize=12;fontStyle=0;aspect=fixed;pointerEvents=1;shape=mxgraph.aws4.mobile_client;" vertex="1" parent="1">
          <mxGeometry x="73.1" y="760" width="31.54" height="60" as="geometry" />
        </mxCell>
        <mxCell id="finivNjmWycJj_v846NW-42" style="edgeStyle=orthogonalEdgeStyle;rounded=0;orthogonalLoop=1;jettySize=auto;html=1;entryX=0;entryY=0.75;entryDx=0;entryDy=0;" edge="1" parent="1" source="finivNjmWycJj_v846NW-20" target="finivNjmWycJj_v846NW-37">
          <mxGeometry relative="1" as="geometry" />
        </mxCell>
        <mxCell id="finivNjmWycJj_v846NW-20" value="web application" style="sketch=0;pointerEvents=1;shadow=0;dashed=0;html=1;strokeColor=none;fillColor=#505050;labelPosition=center;verticalLabelPosition=bottom;verticalAlign=top;outlineConnect=0;align=center;shape=mxgraph.office.concepts.website;" vertex="1" parent="1">
          <mxGeometry x="59.370000000000005" y="880" width="59" height="49" as="geometry" />
        </mxCell>
        <mxCell id="finivNjmWycJj_v846NW-38" value="public zone" style="swimlane;whiteSpace=wrap;html=1;" vertex="1" parent="1">
          <mxGeometry x="330" y="590" width="100" height="420" as="geometry" />
        </mxCell>
        <mxCell id="finivNjmWycJj_v846NW-37" value="API Gateway" style="sketch=0;html=1;verticalAlign=top;labelPosition=center;verticalLabelPosition=bottom;align=center;spacingTop=-6;fontSize=11;fontStyle=1;fontColor=#999999;shape=image;aspect=fixed;imageAspect=0;image=data:image/svg+xml,PHN2ZyB4bWxucz0iaHR0cDovL3d3dy53My5vcmcvMjAwMC9zdmciIGhlaWdodD0iMzY3LjgxODMyODg1NzQyMTkiIHZpZXdCb3g9IjcuMTA1NDI3MzU3NjAxMDAyZS0xNSAwIDM2Ni40MTAxODY3Njc1NzgxIDM2Ny44MTgzMjg4NTc0MjE5IiBwcmVzZXJ2ZUFzcGVjdFJhdGlvPSJ4TWlkWU1pZCBtZWV0IiB3aWR0aD0iMzY2LjQxMDE5Njc2NzU3OTEiIHZlcnNpb249IjEuMSIgaWQ9InN2Zzk4NyIgem9vbUFuZFBhbj0ibWFnbmlmeSI+JiN4YTsgIDxwYXRoIGQ9Im0gNDguMjUxOTYsMTExLjUzOTA2IGMgLTcuNjE4NjQsMmUtNCAtMTMuNzk0NzIsNi4xNzYyOCAtMTMuNzk0OTMsMTMuNzk0OTIgMi4xZS00LDcuNjE4NjQgNi4xNzYyOSwxMy43OTQ3MiAxMy43OTQ5MywxMy43OTQ5MiBoIDE0NS4xNDY5MiB2IC0yNy41ODk4NCB6IG0gMjM4LjYwODU5LDU3LjQ1MTE3IGggNjUuNzU0NjkgYyA3LjYxODY0LC0yLjFlLTQgMTMuNzk0NzEsLTYuMTc2MjggMTMuNzk0OTIsLTEzLjc5NDkyIC0yLjFlLTQsLTcuNjE4NjQgLTYuMTc2MjgsLTEzLjc5NDcxIC0xMy43OTQ5MiwtMTMuNzk0OTIgSCAyODQuODUwNiBaIE0gMTMuNzk0OTIsMTcwLjk3NDYxIEMgNi4xNzYyODAxLDE3MC45NzQ4MiAyLjEwMDkxOWUtNCwxNzcuMTUwODkgOS4xODk5MjFlLTgsMTg0Ljc2OTUzIC04LjY5OTA4MWUtNCwxOTIuMzg4OTMgNi4xNzU1MjAxLDE5OC41NjYxOSAxMy43OTQ5MiwxOTguNTY2NCBIIDE5My4zOTg4OCBWIDE3MC45NzQ2MSBaIE0gMjg0LjMwNzgsMjI3LjU2NjQgaCA2OC4zMDc0NCBjIDcuNjE4NjQsLTIuMWUtNCAxMy43OTQ3MSwtNi4xNzYyOCAxMy43OTQ5MiwtMTMuNzk0OTIgLTIuMWUtNCwtNy42MTg2NCAtNi4xNzYyOCwtMTMuNzk0NzEgLTEzLjc5NDkyLC0xMy43OTQ5MiBoIC02NS45MjE3OCB6IG0gLTIzNi4wNTU4NCwxLjY5NzI3IGMgLTcuNjE4NjQsMmUtNCAtMTMuNzk0NzIsNi4xNzYyOCAtMTMuNzk0OTMsMTMuNzk0OTIgMi4xZS00LDcuNjE4NjQgNi4xNzYyOSwxMy43OTQ3MiAxMy43OTQ5MywxMy43OTQ5MiBIIDE5My4zOTg4OCBWIDIyOS4yNjM2NyBaIE0gMTg5LjUyMTQ5LDAgYyAtMjQuNTc0MTEsMCAtNDkuMTY3MzcsMjAuMDU1MDcgLTU5LjQzNzUsNzUuMzczMDQgaCAzMC41ODAwNyBjIDQuNjE2MzMsLTI0LjE2MjA2IDE1LjM0ODk2LC00Ny41MjE0OCAyNy44NTM1MiwtNDcuNTIxNDggMTIuMTU4OCwwIDM5LjQ1ODk4LDU3LjQ1MDQ0IDM5LjQ1ODk4LDE2MC40MTQwNiAwLDY5LjkxNTEzIC0xOS41NzgwOSwxNTIuMTE1MjQgLTQxLjE3MTg3LDE1Mi4xMTUyMyAtMTUuMjY4ODEsMmUtNSAtMjEuMjE2NjgsLTI4LjMzMzU2IC0yNS40NDMzNiwtNDYuNzE4NzQgbCAtMzAuNDE0MDYsLTAuMDY4NCBjIDQuMjIwNzQsMjAuNTQwODcgMTYuOTA3NjgsNzQuMjI0NiA1Ny43MTI4OSw3NC4yMjQ2IDUzLjQzNjcyLDAgNjguOTEyMTEsLTExMS45OTMwNSA2OC45MTIxMSwtMTgwLjQ2Mjg5IEMgMjU3LjU3MjI3LDkzLjgwMDc2IDIzNi41ODM0LDAgMTg5LjUyMTQ5LDAgWiIgc3R5bGU9ImNvbG9yOiMwMDAwMDA7b3BhY2l0eToxO2ZpbGw6IzQyODVmNDtmaWxsLW9wYWNpdHk6MTtzdHJva2UtbGluZWNhcDpyb3VuZDstaW5rc2NhcGUtc3Ryb2tlOm5vbmUiLz4mI3hhOzwvc3ZnPg==;" vertex="1" parent="finivNjmWycJj_v846NW-38">
          <mxGeometry x="29" y="240" width="42" height="42" as="geometry" />
        </mxCell>
        <mxCell id="finivNjmWycJj_v846NW-39" value="gateway" style="image;aspect=fixed;perimeter=ellipsePerimeter;html=1;align=center;shadow=0;dashed=0;fontColor=#4277BB;labelBackgroundColor=default;fontSize=12;spacingTop=3;image=img/lib/ibm/vpc/PublicGateway.svg;" vertex="1" parent="finivNjmWycJj_v846NW-38">
          <mxGeometry x="19" y="50" width="60" height="60" as="geometry" />
        </mxCell>
        <mxCell id="finivNjmWycJj_v846NW-45" style="edgeStyle=orthogonalEdgeStyle;rounded=0;orthogonalLoop=1;jettySize=auto;html=1;exitX=1;exitY=0.25;exitDx=0;exitDy=0;entryX=0;entryY=0.5;entryDx=0;entryDy=0;entryPerimeter=0;" edge="1" parent="1" source="finivNjmWycJj_v846NW-37" target="finivNjmWycJj_v846NW-36">
          <mxGeometry relative="1" as="geometry" />
        </mxCell>
        <mxCell id="finivNjmWycJj_v846NW-46" style="edgeStyle=orthogonalEdgeStyle;rounded=0;orthogonalLoop=1;jettySize=auto;html=1;exitX=1;exitY=0.75;exitDx=0;exitDy=0;entryX=0;entryY=0.5;entryDx=0;entryDy=0;entryPerimeter=0;" edge="1" parent="1" source="finivNjmWycJj_v846NW-37" target="finivNjmWycJj_v846NW-30">
          <mxGeometry relative="1" as="geometry" />
        </mxCell>
        <mxCell id="finivNjmWycJj_v846NW-48" style="edgeStyle=orthogonalEdgeStyle;rounded=0;orthogonalLoop=1;jettySize=auto;html=1;" edge="1" parent="1" source="finivNjmWycJj_v846NW-39" target="finivNjmWycJj_v846NW-19">
          <mxGeometry relative="1" as="geometry" />
        </mxCell>
      </root>
    </mxGraphModel>
  </diagram>
</mxfile>
